<svg xmlns="http://www.w3.org/2000/svg" xmlns:xlink="http://www.w3.org/1999/xlink" width="500" height="500"><path fill="none" stroke="#000"
            stroke-width="1" stroke-linecap="round" stroke-linejoin="round"
            d="M350,250L112.67690647981512 371.911590755499 152.23781176598104 107.98273939272951 343.84521878143784 293.96438677487805 81.27431058895476 341.16688023291107 196.2529979360519 100.28275741570741 325.1670702850125 334.10212164475024 60.28214622295957 302.47856169856715 240.65243394521306 105.67209722552738 295.6304344927968 366.9206184104553 51.5673063413019 259.2355427037515 281.5943432219917 123.69169838154278 257.8481344746901 389.56625843617803 55.92487670186932 215.22435495318734 315.53879037018 152.77988194621747 215.15283762094558 400.07351080655934 73.00872508321179 174.29859108213802 339.55671659879386 190.40868464603662 171.30611465466066 397.53652265916025 101.36171853652766 140.04248703188676 351.58564578491064 233.30454940105744 130.17005549602186 382.1881999013358 138.54293070922697 115.45801919383283 350.6097380972776 277.7341059978497 95.37010982704277 355.37987458572275 181.34073407415434 102.70283265929626 336.74847254666736 319.8300933281798 69.97858628691642 319.4633339771078 226.05317416884728 102.90187936997339 311.2462164996314 355.92897026762216 56.24644073507429 277.58551014215055 268.8111492474063 116.04921010900992 276.36359273435824 382.89074185312325 55.40676839610168 233.41375360682696 305.9161818463067 141.0084938660715 235.18012766612713 398.3730800182286 67.56715497062933 190.81567461912277 334.16329489516704 175.6122192359686 191.32540950039743 401.03580821783726 91.70028443193885 153.52150179059723 351.12080537288574 216.85091759481068 148.6622261361693 390.6578984884499 125.7336234451625 124.79843411873405 355.34260959645246 261.1358889201339 110.94934479734272 368.1567671313077 166.73035298285333 107.16541537291798 346.4944276925039 304.6124943599087 81.51337264171056 335.5081845103491 211.14575185443272 102.17323096522568 325.382986142437 343.49666519152174 62.9583448301498 295.57379081857766 255.1366499347296 110.26912479142851 293.8855907725535 374.4052510269722 56.938392941292875 251.8512756411079 294.89693590612137 130.7577549564043 254.78623844869185 394.65136795282103 64.01333971934503 208.16903057342498 326.9898297764825 161.8618969388776 211.53257488133391 402.47896278984945 83.59982669560648 168.35193164100463 348.6479128694811 200.87759482515168 167.93491606097678 397.21611607419436 114.02224122950796 135.88742862729703 358.0147227478842 244.4102159499176 127.83360867329567 379.3337004499948 152.65899705187687 113.62109162394916 354.30682189652526 288.6708014359838 94.76376884258777 350.40427361128525 196.17139805738324 103.50819350950945 337.88219161153324 329.80684130867724 71.64666742295051 312.96479442849204 240.79510559730795 106.44301514086459 310.20898032723983 364.2385976044028 60.534703820305765 270.2951471056393 282.66876425447606 122.18077486941937 273.7373346436186 388.9716145542649 62.43223206353488 226.13180815115066 318.1710971565834 149.35899791469245 231.68550217190435 401.8581337858867 77.2078809616474 184.3416529604085 344.2370424956728 185.6164600546675 187.75887936371413 401.78459306500446 103.60602277424506 148.58437860978086 358.6253326186004 227.799321879957 145.8265313744327 388.7688399859145 139.35638918332648 121.9930132634583 360.11415610425627 272.2364581455471 109.58342369176677 363.9585738811902 181.37226512094475 106.90040363791087 348.6078215796016 315.0599460401138 82.22785261950543 329.53115197150134 226.01995818359256 104.63555809651615 325.1451115513823 352.5427338311325 66.18223485057553 288.50350665235584 269.43601902425144 115.4076245686328 291.80859696624486 381.42401150182593 62.88163112624596 244.46876808869365 307.8645194652805 138.28763199032008 251.54282931428133 399.1938786088633 72.64846581047138 201.2825848955681 337.98494404143094 171.28958923413637 207.89728205763652 404.31245793156586 94.66437932764683 162.72652702714515 357.20207012748153 211.5438616127262 164.71648252991073 396.3443263486688 127.04167073852057 132.17795571333204 363.8725301915368 255.54768923304155 125.80438571007092 375.9965271624016 166.98809353620484 112.31518071179462 357.44827734874843 299.4709770146382 94.59228995229951 345.0568454039746 211.0506180325545 104.88364456986096 338.52442971036936 339.49066098381763 73.8392855412637 306.237734670113 255.41687994263447 110.54354594875656 308.7873167290027 372.12446075403886 65.39138683520369 262.939520636745 296.2479987851147 128.81220445394658 270.86726308049066 394.53488168865704 70.02037569751826 218.95355352096487 330.01371113958356 158.10619850674888 228.10896201082082 404.7769274371666 87.35642514286926 178.13122420324044 353.80056171559454 195.8795976321221 184.2794844945801 401.96789760553247 115.92038513583955 144.04773881552134 365.56624723397283 238.84622152015132 143.23941492871194 386.3644472686661 153.2529120003496 119.6900041853348 364.3179089664981 283.2665227036954 108.6058231289909 359.34018104981874 196.12916847641276 107.19587165452072 350.1988090419817 325.2740480696656 83.43649508553362 323.2657377978899 240.84035116557834 107.66750321884248 324.4758237000694 361.21297919988456 69.96298904929421 281.30183443881003 283.5174680931233 121.07515307534547 289.4288453283956 387.9572843584175 69.39582108310333 237.12333621839326 320.4691006908582 146.25976442313916 248.1517484561817 403.1836202407482 81.81878732745301 194.59844193195045 348.5036636682048 181.03415481757713 204.28229532079106 405.57415923379006 106.18164861943754 157.45099118586904 365.2080295694474 222.37395662295907 161.6845601801909 394.931635420263 140.391816095736 128.93537417837513 369.1581941665928 266.68164351250664 124.11159664555782 372.19656584142604 181.49703365054037 111.55242429036073 360.04359165429094 310.10059357140733 94.87779708713889 339.36514360650307 225.94310911788088 106.83109598832377 338.69420696304564 348.8517713766464 76.56954705119419 299.3149707587518 269.8841943138423 115.19498750117936 307.00811829286266 379.56363679648473 70.81943448138759 255.55384437317662 309.51852657252005 135.9253608061822 267.78579538510576 399.5664795580815 78.16372522027379 211.91352679359647 341.42032162780254 167.22388726944394 224.48561924993757 407.1254842528276 97.99554714214132 172.21523378678506 362.8388436797138 206.36964126317991 180.9219664127853 401.5921792657127 128.61786993013737 139.93604341009842 371.9385439069577 249.9566362580711 140.9322148459372 383.46104817690997 167.39165537702746 117.9053480106707 367.95930339672975 294.19116655234484 108.04174187983563 354.32636147515984 210.96624472727308 108.05784901693931 351.2827913260823 335.2229967827341 85.15615968843115 316.7429971630008 255.57187030600446 111.26465801229176 323.3991453430456 369.481486460037 74.30765610985267 274.00340057843994 297.34875524648726 127.25724892271815"/></svg>