<svg xmlns="http://www.w3.org/2000/svg" xmlns:xlink="http://www.w3.org/1999/xlink" width="500" height="500"><path fill="none" stroke="#000"
            stroke-width="1" stroke-linecap="round" stroke-linejoin="round"
            d="M170.1717907988193,326.65104005194917L180.10169179342992 302.01428163779207 165.43593070605198 279.86731230453427 191.93538853526408 281.6980317472997 208.46643817871484 260.9062738464853 214.91410388647847 286.67447917478165 239.79661619725022 295.97143459172344 217.2820351864273 310.0663429215922 216.12922489106919 336.60393564103885 195.76678195815495 319.54686330361466 170.17179365526692 326.65104324892417"/>
<path fill="none" stroke="#000"
            stroke-width="1" stroke-linecap="round" stroke-linejoin="round"
            d="M164.23997651884946,332.5166393057258L175.97836615157587 302.64364994468275 158.02438281170862 276.03839169059955 190.06264592927883 277.97100156950165 209.8176636485378 252.6742713569533 217.88001086929526 283.741679388951 248.04326741350292 294.71269753600575 220.9878092361945 311.98080302996783 219.8747105025012 344.0579957959152 195.09116944381913 323.6628645845866 164.2399800039696 332.51664313847016"/>
<path fill="none" stroke="#000"
            stroke-width="1" stroke-linecap="round" stroke-linejoin="round"
            d="M158.40873295211117,338.4873695705787L171.8648249896301 303.3451016297919 150.54392744648814 272.3376067793678 188.12437152797213 274.27555197536515 211.02573124323868 244.4163300810123 220.7956324926793 280.756314100277 256.27034966221305 293.30979372489986 224.72803701796687 313.8311952851457 223.75125970119134 351.44889477644466 194.48713586773937 327.79183525492715 158.40873707717174 338.4873740283133"/>
<path fill="none" stroke="#000"
            stroke-width="1" stroke-linecap="round" stroke-linejoin="round"
            d="M152.67943948335642,344.5619181857185L167.7620120617711 304.1185111016733 142.99623927833753 268.76586380916785 186.12097641200526 270.6125417185513 212.09029657984502 236.13432276557785 223.66027906428977 277.71903963919124 264.4759754350374 291.76297434139923 228.50188119774666 315.6170665680061 227.758050325725 358.77491507534927 193.95485342135174 331.9328389411693 152.67944425948463 344.56192325751636"/>
<path fill="none" stroke="#000"
            stroke-width="1" stroke-linecap="round" stroke-linejoin="round"
            d="M147.0534602107531,350.7389564548136L163.6708696513514 304.96374178975344 135.38300350209602 265.3240495246685 184.05288164929988 266.98282476114576 213.0110370679458 227.8301261453623 226.47326853507832 274.63052035389615 272.65826016528524 290.07251252675195 232.30849917809047 317.33797350625997 231.89424024016728 366.0343487685028 193.49448339981143 336.08493727594816 147.05346564893372 350.73896212960153"/>
<path fill="none" stroke="#000"
            stroke-width="1" stroke-linecap="round" stroke-linejoin="round"
            d="M141.53214377134913,357.0171398131321L159.59233845117515 305.88064616064696 127.70591562659912 262.0130310625336 181.92051824252474 263.387250164837 213.78765195265098 219.5056207050641 229.23392658655703 271.4914285267938 280.81532246736435 288.23870334782964 236.1470432045573 318.99348253162066 236.15896743908976 373.2254977325746 193.1061761805131 340.2471900169066 141.53214988242289 357.0171460796924"/>
<path fill="none" stroke="#000"
            stroke-width="1" stroke-linecap="round" stroke-linejoin="round"
            d="M136.11682316829166,363.39510799650617L155.52735744394892 306.8690657357251 119.96668126059166 258.8336558393113 179.72432707544425 259.8266619826478 214.41986235505863 211.162690441115 231.94158671718878 268.30244429000385 288.9452843758785 286.2618637619904 240.01666047275205 320.58316993585976 240.55135015487312 380.3466738615661 192.79007120285723 344.4186551658212 136.11682996295343 363.3951148434782"/>
<path fill="none" stroke="#000"
            stroke-width="1" stroke-linecap="round" stroke-linejoin="round"
            d="M130.80881559982112,369.8714852121012L151.47686378292076 307.92883110993574 112.16701589747308 255.78675144156796 177.464758858135 256.3018991512319 214.90741131022662 202.80322262300993 234.5955903278902 265.06425553997883 297.0462715843495 284.14233257943886 243.91649323595283 322.1066219257402 245.0704869672742 387.3961992822183 192.5462969492643 348.5983890879375 130.80882308861834 369.87149262798334"/>
<path fill="none" stroke="#000"
            stroke-width="1" stroke-linecap="round" stroke-linejoin="round"
            d="M125.60942229005704,376.44488031097126L147.4417926727191 309.0597619718731 104.30864469889741 252.8731255182786 175.14227407107575 252.81379538374662 215.25006380264412 194.4291075542455 237.19528680663876 261.7775578512266 305.11641368354015 281.88047042308676 247.84567891331096 323.56343467682063 249.71545691524625 394.3724065682659 192.3749709274391 352.78544663150103 125.60943048338804 376.44488828412204"/>
<path fill="none" stroke="#000"
            stroke-width="1" stroke-linecap="round" stroke-linejoin="round"
            d="M120.51992832159519,383.11388696238214L143.42307725040396 310.26166712509433 96.39330227725142 250.09356567548625 172.75734290811678 249.3631790633134 215.44760679919835 186.04223833289214 239.74003361217433 258.4430543891487 313.15384439935065 279.4766596859201 251.80335019861198 324.95321438612604 254.4853196109998 401.2736389535164 192.27619965388732 356.9788812474709 120.51993722970765 383.11389548102284"/>
<path fill="none" stroke="#000"
            stroke-width="1" stroke-linecap="round" stroke-linejoin="round"
            d="M115.54160246993277,389.87708382988535L139.42164846674441 311.53434451068154 88.42273247703355 247.44883937324045 170.31044521833485 245.9508731370776 215.4998492796343 177.6445106118253 242.2291963567864 255.06145582200335 321.1567018302647 276.9313044858743 255.7886351695861 326.27557732367836 259.37911535629314 408.0982505437305 192.25007863868555 361.1777451094041 115.54161210292183 389.8770928821009"/>
<path fill="none" stroke="#000"
            stroke-width="1" stroke-linecap="round" stroke-linejoin="round"
            d="M110.67569703974021,396.73303474912194L135.43843496773349 312.87758123104635 80.39868815515717 244.93969382482723 167.80207044677968 242.57769501087893 215.40662226450303 169.23782235864212 244.66214888817817 251.63348023200365 329.123128684319 274.2448306182254 259.80065739775654 327.5301498828815 264.39586526093933 414.84460652728126 192.29669237150756 365.3810892334977 110.67570740754732 396.7330443228632"/>
<path fill="none" stroke="#000"
            stroke-width="1" stroke-linecap="round" stroke-linejoin="round"
            d="M105.92344770299687,403.68028890733876L131.47436297635417 314.2911535749756 72.32293096020172 242.56685589830047 165.23271757411817 239.24445644454354 215.1677788405952 160.82407361528794 247.03827337039888 248.15985302555922 337.05127251557155 271.4176855054993 263.8385360588142 328.7165686297558 269.53457136351744 421.5110833845699 192.416114308907 369.587963598775 105.9234588154079 403.68029899042415"/>
<path fill="none" stroke="#000"
            stroke-width="1" stroke-linecap="round" stroke-linejoin="round"
            d="M101.28607333900806,410.7173810245983L127.5303561746089 315.7748270439139 64.19723111063462 240.33103202032584 162.6028950551829 235.9519634478091 214.7831941838581 152.405166257419 249.35696036383513 244.6413068426715 344.9392859600425 268.4503381449058 267.9013860435064 329.8344803510158 274.794216754276 428.0960690961755 192.60840686285928 373.7974172674045 101.28608520565167 410.71739160471543"/>
<path fill="none" stroke="#000"
            stroke-width="1" stroke-linecap="round" stroke-linejoin="round"
            d="M96.76477587632037,417.84283153666195L123.60733558582481 317.32835637948165 56.02336717202783 238.23290808234754 159.9131207564314 232.7010161768942 214.25276557979237 143.98300375352713 251.61760890425325 241.078581465492 352.7853269711041 265.3432790533025 271.9883180690289 330.88354210098714 280.1737657002142 434.5979633497164 192.87362139056313 378.0084985051377 96.76478850666689 417.84284260136985"/>
<path fill="none" stroke="#000"
            stroke-width="1" stroke-linecap="round" stroke-linejoin="round"
            d="M92.36074013655298,425.05514677952806L119.70621945724774 318.9514855922256 47.80312583329314 236.27314934908853 157.16392189232226 229.49240883172274 213.57641244132645 135.55949092385117 253.81962658088372 237.47242372605325 360.5875590542919 262.0970202096946 276.0984387909077 331.86342124735614 285.67216377232967 441.0151777454013 193.21179818550326 382.22025490185285 92.36075353991242 425.0551583162586"/>
<path fill="none" stroke="#000"
            stroke-width="1" stroke-linecap="round" stroke-linejoin="round"
            d="M88.0751336801606,432.35281917560553L115.82792314293717 320.6439479915984 39.53830168195873 234.45240036939293 154.3558349606156 226.32692955381492 212.75407632416704 127.13653369910179 255.9624296135395 233.8235874131821 368.3441515015156 258.7120949952748 280.23085091536166 332.7737955157488 291.2883379750178 447.3461360002474 193.62296646977526 386.43173349219313 88.07514786568164 432.35283117166557"/>
<path fill="none" stroke="#000"
            stroke-width="1" stroke-linecap="round" stroke-linejoin="round"
            d="M83.90910665414637,439.7343274215016L111.97335898697514 322.4054662171643 31.23069697851284 232.7712848894222 151.48940567660395 223.2053603248551 211.78572093962282 118.71603887902518 258.0454429287599 230.13283317860584 376.0532796246408 255.18905813101233 284.38465331212996 333.6143530331327 297.02119687760955 453.5892741509442 194.10714438767366 390.6419808762845 83.90912163081437 439.7343398640746"/>
<path fill="none" stroke="#000"
            stroke-width="1" stroke-linecap="round" stroke-linejoin="round"
            d="M79.86379164173904,447.19813667740675L108.14343620700069 324.2357522710282 22.882121429836076 231.2304057682127 148.56518890628087 220.12847686594782 210.67133216490063 110.2999138908304 260.06810023497155 226.40092844225944 383.7131249884204 251.528485612795 288.55894112775604 334.38479237003827 302.86963074803475 459.7430407553424 194.66433900054392 394.8500433405219 79.86380741837505 447.19814955355497"/>
<path fill="none" stroke="#000"
            stroke-width="1" stroke-linecap="round" stroke-linejoin="round"
            d="M75.94030351405256,454.74269875805356L104.3390607780835 326.13450755148403 14.494391961748534 229.83034489560515 145.5837485984542 217.0970485375729 209.4109180508725 101.89006654750784 262.029844096659 222.62864729680658 391.321875642747 247.73097464413195 292.7528058993143 335.0848225815937 308.8325116885954 465.80589709254275 195.29454628289898 399.0549669784105 75.94032009931158 454.7427120547195"/></svg>