<svg xmlns="http://www.w3.org/2000/svg" xmlns:xlink="http://www.w3.org/1999/xlink" width="500" height="500"><path fill="none" stroke="#000"
            stroke-width="1" stroke-linecap="round" stroke-linejoin="round"
            d="M199.99999196153104,479.9999999999996L196.2325608698152 479.64481042256676 192.47999813865988 478.5806448744828 188.75711341827704 476.8117031308518 185.07859923333274 474.34496639634517 181.4589729982665 471.1901697535772 177.91251972369102 467.3597637431827 174.45323563998335 462.86886522722324 171.09477296055968 457.73519772984037 167.85038600282803 451.97902149060565 164.73287887945443 445.6230535066138 161.75455496638173 438.69237787887675 158.9271683470272 431.2143468168396 156.26187742428675 423.2184726917105 153.76920088341814 414.7363115646175 151.45897617959707 405.80133864925676 149.3403207139773 396.44881620052183 147.42159585147488 386.71565435049797 145.7103739222818 376.6402654410385 144.21340833733933 366.2624124278055 142.93660693571124 355.62305195405537 141.88500866904283 344.7641727134845 141.06276371512155 333.7286297400439 140.47311709902186 322.5599752787043 140.11839588647425 311.3022869046485 140.00000000000017 299.99999356922496 140.11839669405765 288.6977002591808 140.47311871100152 277.44001196116284 141.0627661251357 266.27135762621947 141.88501186758026 255.23581482903467 142.93661091014877 244.37693581388365 144.21341307199168 233.7375756138277 145.71037939846346 223.35972292148307 147.42160204757386 213.28433437883973 149.34032760554044 203.5511729401122 151.45898373942651 194.19865094553057 153.7692090816787 185.2636785253878 156.26188622862364 176.78151793262293 158.9271777226937 168.78564437882338 161.7545648763764 161.30761392286254 164.73288928466704 154.37693893355654 167.85039686219395 148.020971617831 171.09478423122198 142.26479607406046 174.45324727746186 137.13112929659485 177.91253168205793 132.64023152216464 181.45898523032758 128.809826271985 185.0786116908137 125.65503040511712 188.75712605201386 123.18829445913374 192.48001089879295 121.4193535135372 196.2325737059861 120.35518876984952 200.0000048230813 120.00000000000006 203.767435921142 120.35518897174532 207.51999867130678 121.41935391653209 211.2428834232887 123.18829506163718 214.921397652297 125.65503120475134 218.54102394371822 128.8098272655942 222.08747728671727 132.64023270582754 225.54676145064707 137.1311306656401 228.9052242217748 142.264797623085 232.14961128233057 148.02097334072158 235.2671185192425 154.37694082351365 238.2454425561197 161.3076159724274 241.0728293090563 168.78564657990725 243.73812037462915 176.7815202765392 246.23079706701685 185.26368100288613 248.5410219304457 194.19865354683336 250.65967756313208 203.5511756549533 252.57840259950058 213.2843371965049 254.289624708673 223.35972583085228 255.7865904789978 233.73757860341902 257.0633920706796 244.3769388718985 258.11499053132303 255.23581794340447 258.93723568237516 266.2713607846532 259.5268824979835 277.44001515119567 259.8816039116301 288.6977034682231 260.0000000000001 299.9999967846121 259.88160350783846 311.30229011369073 259.52688169199365 322.55997846873714 258.93723447736807 333.7286328984777 258.11498893205436 344.7641758278544 257.0633900834609 355.62305501207027 255.78658811167168 366.2624154173968 254.28962197058223 376.6402683504078 252.57839950145114 386.71565716816326 250.6596741173506 396.44881891536306 248.5410181505311 405.80134125055963 246.23079296788669 414.7363140421159 243.73811597246083 423.2184750356269 241.07282462122316 431.2143490179237 238.2454376011225 438.6923799284417 235.26711331663634 445.6230553965711 232.14960585264774 451.97902321349636 228.9052185864438 457.735199278865 225.54675563190796 462.8688665962686 222.08747130753397 467.35976492684586 218.54101782768782 471.1901707471866 214.9213914235567 474.3449671959796 211.24287710642048 476.81170373335544 207.51999229124044 478.58064527747786 203.76742950305675 479.6448106244627 199.99999839230637 479.9999999999998"/>
<path fill="none" stroke="#000"
            stroke-width="1" stroke-linecap="round" stroke-linejoin="round"
            d="M355.8845799158203,210.0000125307334L357.46069214155244 213.4402984081921 358.41537897354317 217.2221958708169 358.74487269914994 221.33077949761656 358.4478729572136 225.74983458660228 357.5255518699893 230.46192114680693 355.9815494173157 235.44844272595918 353.8219590712782 240.68971980218228 351.05530374805875 246.1650674500736 347.6925021718813 251.85287697465225 343.74682578379634 257.73070119100333 339.23384636536866 263.77534301305843 334.17137458397104 269.96294700189367 328.57938970222 276.2690935122453 322.47996072895626 282.66889506569015 315.8971593229521 289.13709457014926 308.8569647930754 295.64816499808853 301.3871615698289 302.1764101300302 293.5172295529008 308.6960659657889 285.2782277674728 315.18140240320565 276.7026717884412 321.6068247831033 267.824405416302 327.94697489970963 258.6784671111371 334.17683107790674 249.30095171182407 340.27180692234833 239.72886798620266 346.2078483487264 229.99999257438037 351.9615285142493 220.15272090159783 357.5101402726847 210.22591564903158 362.8317857890883 200.25875338055147 367.9054629605519 190.29056993072632 372.71114830190515 180.36070516426108 377.22987596926134 170.50834771952873 381.44381260953594 160.77238034892363 385.3363277405415 151.19122646640665 388.8920593839009 141.8026985078497 392.0969746917556 132.64384870263112 394.9384253280034 123.75082284541884 397.4051973855009 115.1587176452373 399.48755564223 106.9014422147956 401.17728198177076 99.01158424671603 402.4677078264509 91.5202814048034 403.3537404551748 84.45709843791568 403.8318831020657 77.84991050141119 403.90024875660345 71.72479314664889 403.5585676107921 66.10591941270374 402.8081881239688 61.01546442642808 401.65207170105134 56.47351788735989 400.094781005226 52.49800478285954 398.1424619512012 49.10461464637626 395.80281945009057 46.30673963802951 393.0850870016501 44.11542169187311 389.9999902538742 42.53930893842772 386.5597046737645 41.58462157446158 382.7778074963255 41.25512731471659 378.66922414142323 41.55212652246004 374.2501693099732 42.47444707754494 369.5380829919262 44.0184490022327 364.551561638598 46.17803882652177 359.31028477097396 48.944693636289145 353.83493731363353 52.307494709337334 348.1471279608057 56.25317060660137 342.26930389672737 60.766149548453626 336.22466220686607 65.82862086940207 330.03705832962396 71.42060530864742 323.7309119098244 77.52003385909538 317.3311104255332 84.10283486364204 310.8629109685564 91.14302901500429 304.35184056624075 98.61283188417299 297.8235954379627 106.48276357285727 291.30393958389345 114.72176505717097 284.818603106264 123.29732076340618 278.39318066441024 132.17558689214337 272.05303046434904 141.32152498426137 265.8231741815276 150.6990402017233 259.72819821170503 160.27112377740718 253.79215663968426 169.9999990717972 248.03847630883163 179.84727066011618 242.48986436603207 189.7740758615209 237.1682186469573 199.74123811234352 232.09454125531562 209.70942157808477 227.28885567714616 219.639286393977 222.77012775727022 229.49164392145207 218.55619084976897 239.22761140778914 214.66367543788442 248.8087654385706 211.1079435011023 258.19729357733934 207.90302788843908 267.35614359400586 205.06157693719985 276.24916969306776 202.5948045557713 284.8412751645461 200.51244596744976 293.0985508946611 198.8227192899639 300.9884091896078 197.5322931023197 308.4797123842914 196.6462601269664 315.54289572846164 196.16811713114853 322.15008406527136 196.09975112676346 328.27520184178167 196.44143192318782 333.89407601725327 197.19181106246324 338.9845314630911 198.34792714104364 343.5264784779438 199.9052174971016 347.50199207257305 201.85753621726974 350.8953827115954 204.19717839175186 353.6932582329082 206.91491052208102 355.884576700433 210.00000696151838"/>
<path fill="none" stroke="#000"
            stroke-width="1" stroke-linecap="round" stroke-linejoin="round"
            d="M44.115428122648154,209.99999860769645L46.30674675550259 206.9149022856914 49.10462242245802 204.19717030529975 52.49801318686133 201.85752831266873 56.47352688611494 199.90520980554754 61.015473984422414 198.34791969289154 66.10592949221635 197.1918038871076 71.72480370790052 196.44142504894646 77.84992150272137 196.09974458076584 84.45710983586733 196.16811093922877 91.52029315441399 196.6462543135612 99.01159630161521 197.53228769037185 106.90145452740823 198.8227143008319 115.15873016697108 200.51244142082342 123.75083552685622 202.59480046959408 132.64386149372427 205.06157332759807 141.80271135811805 207.90302476965815 151.191239325136 211.10794088545066 160.77239316536645 214.66367333568482 170.50836044310444 218.5561892693178 180.36071774475548 222.77012670480485 190.29058231849 227.28885515682015 200.25876552669556 232.09454126918249 210.2259275056208 237.16821919496235 220.15273242183966 242.48986544601252 230.00000371280967 248.03847791652532 239.7288786988611 253.79215876874633 249.30096195643375 259.7282008537331 258.6784768472672 265.8231773260947 267.82441460552843 272.0530340990451 276.7026803944983 278.3931847748907 285.2782357563965 284.8186076763067 293.51723689316236 291.30394459546255 301.38716823245966 297.82360087127984 308.85697075178103 304.351846399863 315.8971645542164 310.8629171794612 322.47996521213355 317.33111698920897 328.5793934196174 323.73091880036725 334.17137752091776 330.0370655198401 339.2338485102738 336.224669668379 343.74682712819504 342.26931160008985 347.6925027104677 348.14713587561613 351.0553034787074 353.83494540865587 353.821957995052 359.3102930142607 355.9815475384622 364.55156999761675 357.5255491959233 369.5380914336877 358.4478694984885 374.25017780116167 358.74486846941574 378.66923264852784 358.41537398949265 382.77781598577263 357.4606864228555 386.5597131120501 355.88457348504585 389.9999986076963 353.69325537355985 393.0850952380399 350.89538021957037 395.8028275365428 347.5019899577062 398.14246985580235 343.52647674858144 400.09478869678026 338.9845301260584 401.6520791492037 333.89407507782676 402.8081952993247 328.27520130366895 403.5585744850337 322.1500839305961 403.90025530260135 315.5428959977553 403.8318892939858 308.47971305649116 403.3537462685803 300.98841026206094 402.46771323839914 293.098552363135 401.17728697090314 284.8412770232454 399.4875601888567 276.24917193465706 397.4052014716785 267.3561462096386 394.93842893760564 258.1972965566928 392.09697781053694 248.8087687698866 388.892061999553 239.22761507792058 385.3363298427416 229.49164791591457 381.4438141899875 219.63929069700626 377.22987702172713 209.7094261726987 372.71114882223156 199.74124298040925 367.9054629466855 189.77408098382645 362.83178524108376 179.8472760164461 357.5101391927047 170.00000464101254 351.96152690655606 160.2711295375288 346.2078462196647 150.6990461300186 340.2718042803207 141.32153105733408 334.17682793334 132.17559308602586 327.94697126501404 123.29732705365402 321.60682067262326 114.72177141895943 315.1813978331633 106.48276998107927 308.6960609542201 98.61283831353822 302.17640469671346 91.14303544013899 295.64815916446656 84.10284125918916 289.1370883592448 77.52004019981456 282.6688885020147 71.42061156951479 276.26908662170274 65.82862702570881 269.96293981167776 60.76615557590361 263.7753355515457 56.253176481406996 257.73069348764096 52.307500408313444 251.85286905984194 48.94469913694451 246.16505935505143 46.1780441071478 240.68971155889562 44.018454041989116 235.4484343669405 42.4744518565422 230.4619127050455 41.552131021837624 225.74982609541382 41.25513151671754 221.33077099051195 41.58462546250246 217.22218738136982 42.53931249716422 213.44028996990647 44.11542490726052 210.00000417691126"/></svg>